<?xml version="1.0" encoding="UTF-8"?>
<svg id="Layer_1" data-name="Layer 1" xmlns="http://www.w3.org/2000/svg" viewBox="0 0 553.41 446.07">
  <defs>
    <style>
      .cls-1 {
        fill: #414042;
      }

      .cls-2 {
        fill: #881ef9;
      }
    </style>
  </defs>
  <g>
    <path class="cls-1" d="M0,444.22v-99.71h32.48c5.27,0,10.04,1.27,14.32,3.81,4.27,2.54,7.65,6,10.15,10.36,2.49,4.37,3.74,9.26,3.74,14.67,0,5.03-1.06,9.57-3.17,13.6-2.11,4.04-4.97,7.35-8.58,9.94-3.61,2.59-7.65,4.22-12.11,4.88l24.5,42.45h-8.9l-24.36-41.95H7.69v41.95H0ZM7.69,394.58h24.29c3.85,0,7.36-.94,10.54-2.81,3.18-1.87,5.72-4.43,7.62-7.66,1.9-3.23,2.85-6.91,2.85-11.04s-.95-7.75-2.85-11.01c-1.9-3.25-4.44-5.82-7.62-7.69-3.18-1.87-6.7-2.81-10.54-2.81H7.69v43.02Z"/>
    <path class="cls-1" d="M79.41,444.22v-99.71h7.69v92.02h47.15v7.69h-54.84Z"/>
    <path class="cls-1" d="M202.28,373h7.69v71.22h-7.69l-.21-14.6c-2.42,4.94-5.88,8.92-10.36,11.93-4.49,3.02-9.86,4.52-16.13,4.52-5.18,0-10.03-.98-14.56-2.96-4.54-1.97-8.54-4.68-12-8.12-3.47-3.44-6.17-7.43-8.12-11.97-1.95-4.54-2.92-9.41-2.92-14.64s.96-10.02,2.88-14.53c1.92-4.51,4.59-8.49,8.01-11.93,3.42-3.44,7.38-6.13,11.89-8.05,4.51-1.92,9.33-2.88,14.46-2.88,6.31,0,11.79,1.53,16.42,4.59,4.63,3.06,8.25,7.06,10.86,12l-.21-14.6ZM175.49,438.52c5.46,0,10.15-1.34,14.07-4.02,3.92-2.68,6.92-6.3,9.01-10.86,2.09-4.56,3.13-9.57,3.13-15.03s-1.06-10.67-3.17-15.21c-2.11-4.54-5.13-8.14-9.05-10.83-3.92-2.68-8.58-4.02-14-4.02s-10.5,1.35-14.99,4.06c-4.49,2.71-8.06,6.34-10.72,10.9-2.66,4.56-3.99,9.59-3.99,15.1s1.36,10.66,4.09,15.17c2.73,4.51,6.35,8.1,10.86,10.76,4.51,2.66,9.42,3.99,14.74,3.99Z"/>
    <path class="cls-1" d="M286.39,337.38h7.69v106.84h-7.69v-14.67c-2.47,4.99-5.98,8.99-10.54,12-4.56,3.02-9.99,4.52-16.31,4.52-5.18,0-10.02-.97-14.53-2.92-4.51-1.95-8.49-4.64-11.93-8.08-3.44-3.44-6.14-7.42-8.08-11.93-1.95-4.51-2.92-9.36-2.92-14.53s.97-10.03,2.92-14.57c1.95-4.53,4.64-8.52,8.08-11.96,3.44-3.44,7.42-6.14,11.93-8.09,4.51-1.95,9.35-2.92,14.53-2.92,6.32,0,11.75,1.51,16.31,4.52,4.56,3.02,8.07,6.99,10.54,11.93v-50.14ZM259.61,438.52c5.46,0,10.15-1.34,14.07-4.02,3.92-2.68,6.92-6.3,9.01-10.86s3.13-9.57,3.13-15.03-1.06-10.67-3.17-15.21c-2.11-4.54-5.13-8.14-9.05-10.83-3.92-2.68-8.58-4.02-14-4.02s-10.43,1.35-14.92,4.06c-4.49,2.71-8.07,6.34-10.76,10.9-2.68,4.56-4.02,9.59-4.02,15.1s1.36,10.66,4.09,15.17c2.73,4.51,6.35,8.1,10.86,10.76,4.51,2.66,9.42,3.99,14.74,3.99Z"/>
    <path class="cls-1" d="M317.23,359.53c-1.33,0-2.46-.44-3.38-1.32-.93-.88-1.39-1.98-1.39-3.31s.46-2.43,1.39-3.31c.92-.88,2.05-1.32,3.38-1.32s2.39.44,3.31,1.32c.92.88,1.39,1.98,1.39,3.31s-.45,2.43-1.35,3.31c-.9.88-2.02,1.32-3.35,1.32ZM313.31,373h7.69v71.22h-7.69v-71.22Z"/>
    <path class="cls-1" d="M371.57,446.07c-6.55,0-12.52-1.69-17.91-5.05-5.39-3.37-9.69-7.9-12.89-13.57-3.21-5.67-4.81-11.95-4.81-18.84,0-5.23.93-10.1,2.78-14.64,1.85-4.53,4.4-8.52,7.66-11.96,3.25-3.44,7.04-6.14,11.36-8.09,4.32-1.95,8.92-2.92,13.82-2.92,5.18,0,9.96,1.01,14.35,3.03,4.39,2.02,8.18,4.86,11.36,8.51,3.18,3.66,5.63,7.97,7.34,12.93,1.71,4.96,2.49,10.39,2.35,16.28h-62.96c.52,5.08,2.05,9.63,4.59,13.64,2.54,4.02,5.8,7.17,9.79,9.48,3.99,2.3,8.38,3.48,13.18,3.52,5.27,0,10.02-1.39,14.25-4.17,4.23-2.78,7.62-6.59,10.18-11.43l7.76,1.78c-2.85,6.31-7.15,11.48-12.89,15.49-5.75,4.02-12.18,6.02-19.3,6.02ZM343.8,405.19h55.41c-.28-4.89-1.7-9.39-4.24-13.5-2.54-4.11-5.85-7.4-9.93-9.86-4.09-2.47-8.57-3.71-13.46-3.71s-9.36,1.21-13.39,3.64c-4.04,2.42-7.32,5.69-9.87,9.79-2.54,4.11-4.05,8.65-4.52,13.64Z"/>
    <path class="cls-1" d="M444.22,445.57c-3.94-.05-7.8-.75-11.57-2.1-3.78-1.35-7.06-3.17-9.87-5.45-2.8-2.28-4.75-4.87-5.84-7.77l6.77-2.92c.81,2.14,2.36,4.06,4.67,5.77,2.3,1.71,4.91,3.05,7.83,4.02,2.92.98,5.78,1.46,8.58,1.46,3.18,0,6.17-.54,8.97-1.64,2.8-1.09,5.08-2.64,6.84-4.63,1.76-1.99,2.63-4.34,2.63-7.05,0-2.85-.92-5.09-2.78-6.73-1.85-1.64-4.21-2.97-7.09-3.99-2.88-1.02-5.83-1.98-8.87-2.89-5.22-1.52-9.75-3.07-13.57-4.66-3.82-1.59-6.78-3.62-8.87-6.09-2.09-2.47-3.13-5.72-3.13-9.76s1.21-7.81,3.64-10.9c2.42-3.09,5.6-5.47,9.54-7.16,3.94-1.69,8.16-2.53,12.68-2.53,5.84,0,11.15,1.28,15.92,3.85,4.77,2.56,8.13,5.94,10.08,10.11l-6.27,3.7c-.95-2.18-2.45-4.06-4.49-5.63-2.04-1.56-4.37-2.78-6.98-3.63-2.61-.86-5.25-1.31-7.91-1.35-3.33-.05-6.42.46-9.3,1.53-2.87,1.07-5.19,2.61-6.94,4.63-1.76,2.02-2.63,4.45-2.63,7.3s.8,5.03,2.42,6.55c1.61,1.52,3.87,2.74,6.77,3.67,2.9.93,6.24,2.01,10.04,3.24,4.42,1.38,8.54,2.91,12.36,4.59,3.82,1.69,6.91,3.79,9.26,6.31,2.35,2.52,3.5,5.77,3.45,9.76,0,4.18-1.25,7.81-3.74,10.9-2.49,3.09-5.74,5.46-9.76,7.12-4.01,1.66-8.3,2.45-12.86,2.35Z"/>
    <path class="cls-1" d="M513.95,437.1v-31.76h-31.77v-7.69h31.77v-31.76h7.69v31.76h31.77v7.69h-31.77v31.76h-7.69Z"/>
  </g>
  <g>
    <path class="cls-2" d="M409.96,98.29c0,49.95-37.39,91.27-85.64,97.5v-47.9c22.13-5.63,38.52-25.75,38.52-49.6,0-28.2-22.98-51.18-51.18-51.18h-74.78v15.01h-47.05V.03c28.51.02,100.68-.08,128.19,0,51.24,3.3,91.93,46.2,91.93,98.26Z"/>
    <path class="cls-2" d="M409.96,230.61v47.12h-44.47c-46.08,0-84.82-31.85-95.43-74.78h50.04c8.5,16.4,25.62,27.66,45.38,27.66h44.47Z"/>
    <path class="cls-2" d="M236.89,201.56v76.17h-47.05v-81.11h-81.14v-47.12h76.13c5.38,26.06,26,46.67,52.06,52.06Z"/>
    <path class="cls-2" d="M318.02,149.5v46.93c-3.4.5-64.91.04-68.58.19-31.98-.54-58.01-25.9-59.61-57.6v-70.59h47.05v81.08h81.14Z"/>
  </g>
</svg>